<?xml version="1.0" standalone="no"?><!DOCTYPE svg PUBLIC "-//W3C//DTD SVG 1.1//EN" "http://www.w3.org/Graphics/SVG/1.1/DTD/svg11.dtd"><svg class="icon" width="16px" height="16.00px" viewBox="0 0 1024 1024" version="1.1" xmlns="http://www.w3.org/2000/svg"><path d="M673.684211 93.25586c134.736842 77.249123 242.526316 264.084211 242.526315 418.582456 0 17.964912-1.796491 34.133333-5.389473 50.301754 64.673684 59.284211 113.178947 156.294737 113.178947 238.933334 0 98.807018-70.063158 138.329825-156.294737 88.02807l-556.912281-321.57193c-97.010526-55.691228-176.05614-192.224561-174.259649-303.607018 0-93.417544 55.691228-140.126316 131.14386-120.364912 1.796491-88.02807 66.470175-122.161404 145.515789-77.249123 19.761404 10.778947 37.726316 25.150877 52.098246 41.319298 43.115789-55.691228 120.364912-66.470175 208.392983-14.371929z" fill="#105DF8" /><path d="M256.898246 145.354105c-1.796491 0-5.389474 0-7.185965-1.796491h-3.592983-21.557894c-3.592982 0-5.389474 0-8.982457 1.796491-1.796491 0-5.389474 1.796491-7.185965 1.796491-1.796491 0-1.796491 0-3.592982 1.796492h-1.796491c-5.389474 0-10.778947 3.592982-16.168421 5.389473l-136.533334 79.045614c5.389474-3.592982 10.778947-5.389474 16.168421-7.185964 1.796491 0 1.796491 0 3.592983-1.796492 5.389474-1.796491 10.778947-1.796491 16.168421-3.592982H107.789474c7.185965 0 14.37193 1.796491 21.557894 3.592982l136.533334-79.045614h-8.982456z" fill="#99BBFD" /><path d="M1024 788.497965v-7.185965-7.185965c0-5.389474-1.796491-12.575439-3.592982-17.964912 0-1.796491 0-3.592982-1.796492-5.389474l-1.796491-8.982456v-3.592982c0-1.796491 0-3.592982-1.796491-5.389474 0-3.592982-1.796491-5.389474-1.796491-8.982456-1.796491-3.592982-1.796491-7.185965-1.796492-7.185965 0-1.796491-1.796491-5.389474-3.592982-7.185965 0-1.796491 0-1.796491-1.796491-1.796491l-1.796492-5.389474-3.592982-7.185965c-1.796491-1.796491-1.796491-3.592982-1.796491-3.592982 0-1.796491-1.796491-1.796491-1.796491-3.592983l-3.592983-7.185965-1.796491-5.389473c0-1.796491-1.796491-1.796491-1.796491-3.592983-1.796491-3.592982-3.592982-5.389474-5.389474-8.982456-1.796491-1.796491-1.796491-3.592982-3.592982-5.389474-1.796491-1.796491-3.592982-5.389474-3.592983-7.185965-5.389474-10.778947-12.575439-19.761404-19.761403-28.743859 0-1.796491-1.796491-1.796491-1.796492-3.592983-1.796491-3.592982-5.389474-5.389474-7.185965-8.982456 0-1.796491-1.796491-1.796491-1.796491-3.592982-1.796491-3.592982-3.592982-3.592982-3.592982-3.592983-1.796491-1.796491-3.592982-5.389474-5.389474-7.185965l-3.592982-5.389473-3.592983-3.592983c-1.796491-1.796491-3.592982-5.389474-5.389474-7.185965l-1.796491-1.796491-3.592982-3.592982c-1.796491-1.796491-5.389474-3.592982-7.185965-7.185965v-5.389474c0-3.592982 1.796491-7.185965 1.796491-12.575439v-7.185965V524.413754v-10.778947-10.778947-12.575439-5.389474-7.185965c0-3.592982 0-7.185965-1.796491-12.575438s-1.796491-8.982456-1.796491-12.575439c0-3.592982-1.796491-8.982456-1.796492-12.575438 0-3.592982-1.796491-8.982456-1.796491-12.575439 0-1.796491 0-3.592982-1.796491-5.389474-1.796491-5.389474-1.796491-7.185965-1.796491-8.982456-1.796491-3.592982-1.796491-8.982456-3.592983-12.575438 0-3.592982-1.796491-7.185965-3.592982-8.982456 0-1.796491 0-3.592982-1.796491-3.592983-1.796491-3.592982-1.796491-8.982456-3.592983-12.575439s-3.592982-8.982456-3.592982-12.575438c0-1.796491-1.796491-3.592982-1.796492-3.592983-1.796491-1.796491-1.796491-5.389474-3.592982-7.185965-1.796491-3.592982-3.592982-7.185965-5.389474-12.575438-1.796491-3.592982-1.796491-5.389474-3.592982-8.982456 0-1.796491-1.796491-1.796491-1.796491-3.592983l-5.389474-12.575438c-1.796491-3.592982-3.592982-8.982456-5.389474-12.575439l-1.796491-3.592982-5.389474-10.778948c-1.796491-3.592982-5.389474-8.982456-7.185965-12.575438-1.796491-1.796491-1.796491-3.592982-3.592982-7.185965 0-1.796491 0-1.796491-1.796491-1.796491-1.796491-3.592982-3.592982-7.185965-7.185965-10.778948-3.592982-5.389474-7.185965-10.778947-8.982456-16.168421l-1.796492-1.796491-16.168421-21.557895c-3.592982-5.389474-7.185965-8.982456-10.778947-14.37193-3.592982-3.592982-5.389474-7.185965-8.982456-10.778947-3.592982-3.592982-7.185965-7.185965-8.982456-10.778947s-7.185965-7.185965-8.982456-10.778948c0 3.592982 0 3.592982-1.796492 1.796491s-3.592982-5.389474-7.185965-7.185964c-1.796491-3.592982-5.389474-5.389474-8.982456-8.982457l-3.592982-3.592982-1.796491-1.796491-5.389474-5.389474c-3.592982-3.592982-7.185965-7.185965-10.778947-8.982456-1.796491-1.796491-3.592982-1.796491-5.389474-3.592983l-1.796491-1.796491-3.592983-3.592982c-3.592982-3.592982-7.185965-5.389474-10.778947-8.982456-1.796491-1.796491-5.389474-3.592982-7.185965-5.389474-1.796491 0-1.796491-1.796491-3.592983-1.796491-3.592982-1.796491-7.185965-5.389474-10.778947-7.185965l-10.778947-5.389474s-1.796491 0-1.796491-1.796491c-1.796491-1.796491-5.389474-3.592982-7.185965-3.592983l-10.778948-5.389473-5.389473-3.592983c-1.796491 0-3.592982-1.796491-3.592983-1.796491-3.592982-1.796491-7.185965-3.592982-8.982456-3.592982s-7.185965-1.796491-8.982456-3.592983c-1.796491 0-3.592982-1.796491-3.592983-1.796491-1.796491 0-3.592982-1.796491-7.185965-1.796491-3.592982-1.796491-7.185965-1.796491-8.982456-3.592983l-5.389473-1.796491c-3.592982 0-3.592982-1.796491-5.389474-1.796491-3.592982 0-7.185965-1.796491-10.778947-1.796491H553.319298c-5.389474 0-8.982456 1.796491-14.37193 1.796491-1.796491 0-3.592982 0-3.592982 1.796491-3.592982 1.796491-8.982456 1.796491-12.575439 3.592982-7.185965 1.796491-14.37193 5.389474-19.761403 8.982457l-43.11579 26.947368c-1.796491-1.796491-3.592982-1.796491-3.592982-3.592982l-1.796491-1.796492-7.185965-5.389473c-1.796491-1.796491-3.592982-1.796491-5.389474-3.592983-3.592982-3.592982-5.389474-5.389474-8.982456-7.185965-1.796491-1.796491-3.592982-1.796491-5.389474-3.592982-1.796491-1.796491-5.389474-3.592982-7.185965-3.592983-1.796491-1.796491-3.592982-1.796491-5.389473-3.592982-3.592982-1.796491-3.592982-1.796491-5.389474-3.592983-3.592982-1.796491-5.389474-3.592982-7.185965-3.592982-1.796491 0-1.796491-1.796491-3.592982-1.796491-3.592982-1.796491-5.389474-1.796491-7.185965-3.592983-1.796491 0-3.592982-1.796491-5.389474-1.796491-3.592982-1.796491-5.389474-1.796491-5.389474-1.796491-1.796491 0-3.592982-1.796491-5.389473-1.796491h-7.185965c-1.796491 0-3.592982 0-7.185965-1.796492H339.536842c-3.592982 0-5.389474 0-8.982456 1.796492-5.389474 1.796491-7.185965 1.796491-10.778947 1.796491-3.592982 1.796491-7.185965 3.592982-12.575439 5.389474l-134.736842 79.045614c3.592982-3.592982 7.185965-5.389474 12.575438-5.389474 3.592982-1.796491 5.389474-1.796491 8.982457-1.796491 3.592982-1.796491 8.982456-1.796491 12.575438-1.796492h12.575439l26.947368 5.389474c16.168421 5.389474 30.540351 12.575439 43.11579 21.557895 5.389474 3.592982 8.982456 7.185965 12.575438 8.982456 5.389474 3.592982 8.982456 7.185965 12.575439 10.778947l12.575439 12.575439 82.638596-48.505263c3.592982 0 5.389474-1.796491 8.982456-1.796491h21.557895c7.185965 0 14.37193 1.796491 21.557895 3.592982 7.185965 1.796491 16.168421 3.592982 23.354386 7.185965 17.964912 5.389474 34.133333 14.37193 50.301754 23.354386 8.982456 5.389474 16.168421 10.778947 25.150877 16.168421 8.982456 5.389474 16.168421 12.575439 23.354386 17.964912l1.796491 1.796491c7.185965 5.389474 14.37193 12.575439 19.761404 17.964913l1.796491 1.796491c7.185965 7.185965 14.37193 12.575439 19.761404 19.761403 14.37193 16.168421 28.74386 32.336842 41.319298 50.301755 5.389474 7.185965 10.778947 16.168421 16.168421 25.150877 3.592982 5.389474 7.185965 10.778947 8.982456 16.168421 3.592982 3.592982 5.389474 8.982456 7.185965 12.575439 1.796491 1.796491 1.796491 3.592982 3.592982 7.185965 3.592982 7.185965 8.982456 14.37193 12.575439 23.354386 0 0 0 1.796491 1.796491 1.796491 5.389474 8.982456 8.982456 17.964912 12.575439 28.743859 5.389474 10.778947 8.982456 19.761404 12.575438 28.74386 3.592982 10.778947 7.185965 21.557895 10.778948 30.540351 3.592982 10.778947 5.389474 19.761404 7.185965 28.74386 3.592982 12.575439 5.389474 21.557895 5.389473 30.540351 1.796491 10.778947 3.592982 19.761404 3.592983 28.743859 0 12.575439 1.796491 21.557895 1.796491 30.540351 0 17.964912-1.796491 34.133333-5.389474 50.301754l10.778948 10.778948c5.389474 5.389474 8.982456 8.982456 10.778947 12.575438l21.557895 26.947369c0 1.796491 1.796491 1.796491 1.796491 3.592982 1.796491 3.592982 3.592982 5.389474 7.185965 8.982456 3.592982 5.389474 7.185965 12.575439 12.575439 17.964913 1.796491 3.592982 3.592982 5.389474 5.389473 8.982456 0 1.796491 1.796491 3.592982 3.592983 5.389474 1.796491 3.592982 5.389474 8.982456 7.185965 14.371929 3.592982 7.185965 5.389474 10.778947 7.185965 16.168421 1.796491 7.185965 5.389474 10.778947 7.185964 16.168421 1.796491 7.185965 3.592982 10.778947 5.389474 16.168422l5.389474 16.168421c1.796491 7.185965 1.796491 10.778947 3.592982 16.168421 1.796491 7.185965 1.796491 10.778947 3.592983 16.168421 0 5.389474 1.796491 10.778947 1.796491 16.168421v16.168421c0 10.778947-1.796491 21.557895-3.592982 32.336842-1.796491 5.389474-1.796491 10.778947-3.592983 14.37193-1.796491 5.389474-3.592982 8.982456-5.389474 12.575438-1.796491 3.592982-3.592982 8.982456-7.185965 12.575439-3.592982 5.389474-8.982456 10.778947-14.371929 16.168421-3.592982 3.592982-8.982456 7.185965-12.575439 10.778947l136.533333-79.045614c5.389474-3.592982 8.982456-5.389474 12.575439-10.778947 1.796491 0 1.796491-1.796491 3.592982-3.592983 3.592982-3.592982 7.185965-8.982456 10.778948-12.575438l5.389473-10.778948c1.796491-3.592982 3.592982-7.185965 3.592983-8.982456 0-1.796491 0-1.796491 1.796491-3.592982 0-1.796491 1.796491-3.592982 1.796491-3.592983 0-1.796491 1.796491-5.389474 1.796492-7.185964v-3.592983-5.389474l1.796491-7.185965v-3.592982-3.592982-7.185965-7.185965-8.982456l8.982456-5.389474z" fill="#105DF8" /><path d="M537.150877 175.894456c134.736842 77.249123 242.526316 265.880702 242.526316 418.582456 0 17.964912-1.796491 34.133333-5.389474 50.301755 64.673684 59.284211 113.178947 154.498246 113.178948 237.136842 0 98.807018-70.063158 138.329825-156.294737 88.02807l-556.912281-321.57193c-97.010526-53.894737-174.259649-190.42807-174.259649-301.810526 0-93.417544 55.691228-140.126316 131.14386-120.364912 3.592982-88.02807 66.470175-122.161404 145.515789-77.249123 19.761404 10.778947 37.726316 25.150877 52.098246 41.319298 43.115789-55.691228 120.364912-66.470175 208.392982-14.37193z" fill="#105DF8" /></svg>