<?xml version="1.0" standalone="no"?><!DOCTYPE svg PUBLIC "-//W3C//DTD SVG 1.1//EN" "http://www.w3.org/Graphics/SVG/1.1/DTD/svg11.dtd"><svg class="icon" width="48px" height="48.00px" viewBox="0 0 1024 1024" version="1.1" xmlns="http://www.w3.org/2000/svg"><path d="M621.568 424.448c-15.872-79.872-86.016-140.288-170.496-140.288-67.072 0-125.44 37.888-154.112 93.696-69.632 7.68-124.416 66.56-124.416 138.24 0 76.8 62.464 139.264 139.264 139.264h301.568c64 0 116.224-52.224 116.224-116.224-0.512-60.416-48.128-110.08-108.032-114.688z" fill="#AAD4FF" /><path d="M714.24 482.304c-15.872-79.872-86.016-140.288-170.496-140.288-67.072 0-125.44 37.888-154.112 93.696-69.632 7.68-124.416 66.56-124.416 138.24 0 76.8 62.464 139.264 139.264 139.264h301.568c64 0 116.224-52.224 116.224-116.224 0-60.416-47.616-110.08-108.032-114.688z" fill="#2B95FF" /><path d="M947.2 516.608h-29.696v-29.696c0-6.656-5.12-11.776-11.776-11.776s-11.776 5.12-11.776 11.776v29.696h-29.696c-6.656 0-11.776 5.12-11.776 11.776s5.12 11.776 11.776 11.776h29.696v29.696c0 6.656 5.12 11.776 11.776 11.776s11.776-5.12 11.776-11.776v-29.696h29.696c6.656 0 11.776-5.12 11.776-11.776s-5.632-11.776-11.776-11.776zM785.92 837.632c-20.48 0-30.72-16.384-38.4-28.672-7.68-12.288-11.264-17.408-18.432-17.408-6.656 0-10.752 5.12-18.432 17.408-7.168 12.288-17.408 28.672-38.4 28.672-20.48 0-30.72-16.384-38.4-28.672-7.68-12.288-11.264-17.408-18.432-17.408-6.656 0-11.776-5.12-11.776-11.776 0-6.656 5.12-11.776 11.776-11.776 20.48 0 30.72 16.384 38.4 28.672 7.68 12.288 11.264 17.408 18.432 17.408 6.656 0 10.752-5.12 18.432-17.408 7.168-12.288 17.408-28.672 38.4-28.672 20.48 0 30.72 16.384 38.4 28.672 7.68 12.288 11.264 17.408 18.432 17.408s10.752-5.632 18.432-17.408c7.168-12.288 17.408-28.672 38.4-28.672 6.656 0 11.776 5.12 11.776 11.776 0 6.656-5.12 11.776-11.776 11.776-7.168 0-10.752 5.12-18.432 17.408-7.68 11.776-17.92 28.672-38.4 28.672z" fill="#A8D4FF" /><path d="M181.76 320.512l15.36-47.104-62.464 31.744z" fill="#D9EDFF" /><path d="M172.032 713.728m-32.768 0a32.768 32.768 0 1 0 65.536 0 32.768 32.768 0 1 0-65.536 0Z" fill="#D9EDFF" /><path d="M819.712 304.128l-49.664-49.664c-3.584-3.584-9.216-3.584-12.8 0l-49.664 49.664c-3.584 3.584-3.584 9.216 0 12.8l49.664 49.664c3.584 3.584 9.216 3.584 12.8 0l49.664-49.664c3.584-3.072 3.584-9.216 0-12.8z m-56.32 43.52l-36.864-36.864 36.864-36.864 36.864 36.864-36.864 36.864z" fill="#A8D4FF" /></svg>