<?xml version="1.0" standalone="no"?><!DOCTYPE svg PUBLIC "-//W3C//DTD SVG 1.1//EN" "http://www.w3.org/Graphics/SVG/1.1/DTD/svg11.dtd"><svg class="icon" width="16px" height="16.00px" viewBox="0 0 1024 1024" version="1.1" xmlns="http://www.w3.org/2000/svg"><path d="M172.968682 640.384992c3.195039 8.326946-4.500837 11.589457-27.346356 11.589458-15.927566 0-20.654636-1.516155-22.670884-7.263256-2.305984-6.568682-2.766388-6.429767-4.826295 1.45662-1.373271 5.250977-0.456434 8.739721 2.309954 8.775442 2.869581 0.03969 2.571907 1.341519-0.805706 3.480806-8.334884 5.27876-2.083721 32.184558 15.760869 67.838016 27.060589 54.065612 77.498543 92.668031 137.779596 105.444217 38.570667 8.176124 439.089612 8.176124 477.66028 0 40.809178-8.648434 69.250977-24.357705 100.836217-55.680993 29.779349-29.541209 45.611659-56.95107 54.077519-93.636465 4.310326-18.658233 4.060279-20.995969-2.766388-25.988961-9.418419-6.886202-40.32893-7.263256-43.04769-0.523907-1.154977 2.869581-2.131349 1.920992-2.313922-2.24645-0.234171-5.421643-2.937054-6.898109-10.875039-5.953488-8.886574 1.055752-11.724403 4.68738-17.904124 22.936806-18.562977 54.791938-63.392744 87.492465-119.879442 87.440868-46.976992-0.03969-77.252465-16.320496-113.116279-60.816868L574.499721 670.75969h-87.071752l12.732527 22.821705c7.005271 12.553922 19.733829 32.200434 28.290977 43.658915l15.558449 20.837209h-126.543379c-85.130915 0-130.960868-1.49631-140.037954-4.576248-37.252961-12.64124-71.834791-47.921612-83.043225-84.726077-6.147969-20.190264-11.724403-26.50493-12.08955-13.693023-0.254016 8.874667-0.555659 9.033426-3.421271 1.786046-1.726512-4.365891-2.373457-9.989953-1.432807-12.498357 0.936682-2.508403-0.182574-5.727256-2.488558-7.152124-2.492527-1.536-3.298233-0.250047-1.984496 3.167256M853.333333 655.082171c0 2.861643-2.171039 2.901333-6.945736 0.119069-6.61631-3.853891-6.61631-4.052341 0-4.167442 3.82214-0.063504 6.945736 1.754295 6.945736 4.048373" fill="#1379FF" /><path d="M458.418605 192.492155c-53.442481 11.938729-90.675597 32.089302-126.170295 68.274605-27.310636 27.84645-39.943938 45.972837-54.399008 78.05817-9.60893 21.329364-21.952496 65.631256-18.955907 68.032496 0.59138 0.47231 18.59076-0.23814 39.995535-1.571721l38.915969-2.432992 9.398574-23.15907C377.756775 304.385984 445.039132 261.489116 523.906977 267.033798c70.925891 4.985054 131.377612 49.652093 150.194604 110.969055l7.624435 24.84986 27.259038 0.769985c14.994853 0.420713 33.252217 1.678884 40.571039 2.790201l13.304062 2.028155-2.722729-14.701147c-25.79845-139.319566-164.574264-231.884403-301.718821-201.247752" fill="#5CE2EE" /><path d="M271.328248 438.549829c-67.234729 14.621767-126.019473 66.270264-147.936248 129.976559-9.656558 28.060775-12.40707 61.586853-4.659597 56.800248 1.996403-1.234357 4.532589 0 5.639938 2.742573 1.190698 2.956899 2.135318 2.103566 2.321861-2.095628 0.27386-6.144 3.738791-6.957643 26.112-6.132093 17.971597 0.666791 25.79845 2.512372 25.798449 6.092403 0 2.825922 1.905116 5.135876 4.234915 5.135876 2.516341 0 3.147411-3.429209 1.559814-8.434108-1.762233-5.560558-1.218481-7.533147 1.603473-5.79076 2.504434 1.547907 5.377984-1.944806 6.941767-8.434108 8.088806-33.63324 34.780279-66.889426 67.024372-83.511566 14.597953-7.525209 27.941705-10.716279 50.465737-12.065737 54.458543-3.266481 93.096682 15.999008 125.289178 62.475907l18.725705 27.032807 43.142946 0.603286c49.767194 0.698543 47.953364 4.21507 21.634977-41.991938-42.595225-74.779783-95.255814-114.223628-166.193613-124.475534-33.510202-4.842171-52.077147-4.36986-81.705674 2.071813M671.355039 442.649798c-15.082171 12.692837-18.995597 29.14431-10.728186 45.127442 8.493643 16.42369 18.412155 20.884837 54.533953 24.528372 57.578171 5.802667 98.101581 37.510946 114.120434 89.282481 3.691163 11.926822 7.791132 20.607008 9.104869 19.289302 1.317705-1.317705 4.711194 1.778109 7.541085 6.874295 2.825922 5.100155 5.203349 6.973519 5.282728 4.167442 0.214326-7.79907 10.458295-12.629333 26.929613-12.696806 9.259659-0.035721 14.907535 1.813829 14.943256 4.901705 0.047628 3.631628 0.980341 3.512558 3.488744-0.448496 2.893395-4.56831 3.762605-4.56831 5.580403 0 1.18276 2.976744 2.32186 0.94462 2.524279-4.512744 0.297674-7.874481 1.158946-8.692093 4.171411-3.968993 5.723287 8.97786 0.182574-21.769922-8.525395-47.306418-15.459225-45.337798-57.887752-93.072868-100.740962-113.346481-26.369984-12.474543-67.044217-21.754047-95.771783-21.853271-16.233178-0.051597-23.032062 2.032124-32.454449 9.96217" fill="#23BCFF" /><path d="M113.286946 620.155039c-3.449054 10.918698-0.047628 36.701271 4.790573 36.316279 2.730667-0.218295 3.341891-0.662822 1.365334-0.992248-1.980527-0.325457-2.571907-4.516713-1.317706-9.311256 2.059907-7.886388 2.52031-8.025302 4.826295-1.45662 2.016248 5.747101 6.743318 7.263256 22.670884 7.263256 22.845519 0 30.541395-3.262512 27.346356-11.589458-1.313736-3.417302-0.508031-4.703256 1.984496-3.167256 2.305984 1.424868 3.42524 4.643721 2.488558 7.152124-0.940651 2.508403-0.293705 8.132465 1.432807 12.498357 2.941023 7.433922 3.159318 7.358512 3.421271-1.226419 0.150822-5.048558 2.059907-8.061023 4.246822-6.711565 5.556589 3.433178 4.965209-3.369674-0.793799-9.128683-3.70307-3.70307-3.70307-4.762791 0-4.76279 5.98524 0 6.278946-14.470946 0.369116-18.122419-2.956899-1.829705-3.520496 0.043659-1.718573 5.719318 1.587597 5.004899 0.956527 8.434109-1.559814 8.434108-2.329798 0-4.234915-2.309953-4.234915-5.135876 0-3.580031-7.826853-5.425612-25.798449-6.092403-22.373209-0.82555-25.83814-0.011907-26.112 6.132093-0.186543 4.199194-1.131163 5.052527-2.321861 2.095628-1.107349-2.742574-3.643535-3.97693-5.639938-2.742573-1.996403 1.234357-3.631628 0.500093-3.631628-1.631256 0-2.12738 2.234543-4.770729 4.961241-5.874109 3.885643-1.567752 3.85786-2.067845-0.123039-2.313922-2.79814-0.170667-5.79076 1.920992-6.652031 4.64769M904.616682 619.492217c-0.170667 5.27876-1.281984 7.160062-2.464744 4.183318-1.817798-4.56831-2.687008-4.56831-5.580403 0-2.508403 3.961054-3.441116 4.080124-3.488744 0.448496-0.07938-6.449612-25.512682-6.544868-37.034667-0.138915-5.727256 3.183132-6.648062 4.885829-2.714791 5.020775 4.270636 0.142884 4.608 1.055752 1.190698 3.226791-2.897364 1.845581-6.469457-0.162729-9.128682-5.131907-2.40124-4.48893-6.06462-7.112434-8.136434-5.830449-5.330357 3.294264-4.695318 9.997891 0.833488 8.807193 3.496682-0.754109 3.496682-0.218295 0 2.218667-2.532217 1.766202-4.604031 6.370233-4.604031 10.228093 0 5.536744 2.508403 6.648062 11.906977 5.266853 9.521612-1.397085 11.970481-0.265922 12.220527 5.651845 0.178605 4.179349 1.18276 5.235101 2.313922 2.432992 2.464744-6.10431 30.608868-6.572651 41.59107-0.690605 7.358512 3.93724 7.612527 3.580031 3.246636-4.572279-3.984868-7.449798-3.786419-8.477767 1.262139-6.540899 4.786605 1.837643 5.818543-0.817612 5.139845-13.240558-0.948589-17.392124-6.06462-26.242977-6.552806-11.339411" fill="#147FFF" /><path d="M906.009798 641.956713c-2.532217 0.841426-3.619721 4.096-2.417116 7.231504 3.15138 8.207876 9.426357 7.021147 8.120558-1.536-0.607256-3.97693-3.171225-6.540899-5.703442-5.695504" fill="#1379FF" /><path d="M853.333333 492.155039l11.906977 11.906977-11.906977-11.906977-11.906976-11.906977 11.906976 11.906977M170.666667 491.853395l-9.922481 10.486078 9.922481-10.486078 9.92248-10.486077-9.92248 10.486077" fill="#5CE2EE" /><path d="M323.472868 267.549767l-7.937984 8.561117 7.937984-8.561117 7.937985-8.561116-7.937985 8.561116" fill="#ABE0FF" /><path d="M666.790698 444.082605l-5.953489 6.648062 5.953489-6.648062 5.953488-6.652031-5.953488 6.652031" fill="#5CE2EE" /><path d="M846.387597 655.20124c4.774698 2.782264 6.945736 2.742574 6.945736-0.119069 0-2.294078-3.123597-4.111876-6.945736-4.048373-6.61631 0.115101-6.61631 0.31355 0 4.167442" fill="#147FFF" /><path d="M414.75969 549.705426l5.953488 5.953489-5.953488-5.953489-5.953488-5.953488 5.953488 5.953488M482.232558 506.046512l5.953489 5.953488-5.953489-5.953488-5.953488-5.953489 5.953488 5.953489M458.418605 482.232558l5.953488 5.953489-5.953488-5.953489-5.953489-5.953488 5.953489 5.953488" fill="#5CE2EE" /></svg>